<svg xmlns="http://www.w3.org/2000/svg" version="1.1" xmlns:xlink="http://www.w3.org/1999/xlink" xmlns:svgjs="http://svgjs.com/svgjs" width="283" height="64" preserveAspectRatio="none" viewBox="0 0 283 64">
    <g mask="url(&quot;#SvgjsMask1444&quot;)" fill="none">
        <rect width="283" height="64" x="0" y="0" fill="url(#SvgjsLinearGradient1445)"></rect>
        <path d="M135.74232507955693 32.97851141920653L132.20571454023653 26.598297114476306 124.4036983528014 35.09332007582202z" fill="rgba(28, 83, 142, 0.4)" class="triangle-float2"></path>
        <path d="M155.55143501966717 38.14068672837372L165.73026996887648 26.453789878290223 152.47851319933702 23.637042023269476z" fill="rgba(28, 83, 142, 0.4)" class="triangle-float3"></path>
        <path d="M145.741,21.564C150.803,21.697,156.424,20.991,159.038,16.654C161.711,12.22,159.957,6.748,157.38,2.258C154.788,-2.258,150.947,-6.441,145.741,-6.516C140.434,-6.593,136.027,-2.758,133.507,1.914C131.12,6.339,130.944,11.718,133.602,15.986C136.125,20.038,140.97,21.439,145.741,21.564" fill="rgba(28, 83, 142, 0.4)" class="triangle-float1"></path>
        <path d="M283.106,70.529C287.465,70.623,291.535,68.222,293.672,64.422C295.769,60.693,295.437,56.143,293.27,52.454C291.133,48.815,287.325,46.328,283.106,46.436C279.05,46.54,275.784,49.41,273.805,52.952C271.881,56.396,271.457,60.495,273.302,63.982C275.272,67.705,278.895,70.438,283.106,70.529" fill="rgba(28, 83, 142, 0.4)" class="triangle-float2"></path>
        <path d="M174.827,56.991C178.817,57.32,182.758,55.062,184.602,51.508C186.332,48.173,185.198,44.202,183.069,41.106C181.231,38.433,178.069,37.191,174.827,37.293C171.773,37.389,168.953,38.944,167.434,41.596C165.924,44.232,166.179,47.359,167.494,50.098C169.051,53.34,171.243,56.696,174.827,56.991" fill="rgba(28, 83, 142, 0.4)" class="triangle-float2"></path>
        <path d="M215.09089743819155 12.982460011105971L204.57971417488082 6.1421669479853 203.81499255918465 17.07819555334944z" fill="rgba(28, 83, 142, 0.4)" class="triangle-float1"></path>
    </g>
    <defs>
        <mask id="SvgjsMask1444">
            <rect width="283" height="64" fill="#ffffff"></rect>
        </mask>
        <linearGradient x1="50%" y1="0%" x2="50%" y2="100%" gradientUnits="userSpaceOnUse" id="SvgjsLinearGradient1445">
            <stop stop-color="#0e2a47" offset="0"></stop>
            <stop stop-color="rgba(61, 137, 234, 0.58)" offset="1"></stop>
        </linearGradient>
        <style>
            @keyframes float1 {
                0%{transform: translate(0, 0)}
                50%{transform: translate(-10px, 0)}
                100%{transform: translate(0, 0)}
            }

            .triangle-float1 {
                animation: float1 5s infinite;
            }

            @keyframes float2 {
                0%{transform: translate(0, 0)}
                50%{transform: translate(-5px, -5px)}
                100%{transform: translate(0, 0)}
            }

            .triangle-float2 {
                animation: float2 4s infinite;
            }

            @keyframes float3 {
                0%{transform: translate(0, 0)}
                50%{transform: translate(0, -10px)}
                100%{transform: translate(0, 0)}
            }

            .triangle-float3 {
                animation: float3 6s infinite;
            }
        </style>
    </defs>
</svg>